# xmcd
#
# Track frame offsets:
#	150
#	16075
#	28057
#	40785
#	58307
#	67327
#	76285
#	84752
#	99637
#	110260
#	124585
#	133995
#	143897
#	154397
#
# Disc length: 2198 seconds
#
# Revision: 0
# Processed by: cddbd v1.4PL0 Copyright (c) Steve Scherf et al.
# Submitted via: EasyCDDAExtractor 4.5.0.2
#
DISCID=be08940e
DTITLE=Trini Lopez - The Best Of Trini Lopez
DYEAR=1900
DGENRE=Latin
TTITLE0=America
TTITLE1=Perfídia
TTITLE2=Michael "Row The Boat Ashore"
TTITLE3=This Land is Your Land
TTITLE4=Amor
TTITLE5=Adelita
TTITLE6=Gonna Get Along Without Ya Now
TTITLE7=Kansas City
TTITLE8=Shame And Scandal
TTITLE9=Leaving On A Jet Plane
TTITLE10=Viva la Compagnie
TTITLE11=Heart of my Heart
TTITLE12=I'm Coming Home Cindy
TTITLE13=Bye Bye Blondie
EXTD=
EXTT0=
EXTT1=
EXTT2=
EXTT3=
EXTT4=
EXTT5=
EXTT6=
EXTT7=
EXTT8=
EXTT9=
EXTT10=
EXTT11=
EXTT12=
EXTT13=
PLAYORDER=
